<svg xmlns="http://www.w3.org/2000/svg" width="115.687" height="140.156" viewBox="0 0 115.687 140.156">
  <g id="logo-spacetalk-robot" transform="translate(2 2)">
    <g id="Group_2" data-name="Group 2" transform="translate(15.148 2)">
      <circle id="Ellipse_170" data-name="Ellipse 170" cx="20" cy="20" r="20" transform="translate(20.563 18.488)" fill="none" stroke="#d24317" stroke-miterlimit="10" stroke-width="4"/>
      <circle id="Ellipse_172" data-name="Ellipse 172" cx="40" cy="40" r="40" transform="translate(1 -2)" fill="none" stroke="#d24317" stroke-miterlimit="10" stroke-width="4"/>
    </g>
    <path id="Path_3682" data-name="Path 3682" d="M672.272,161.835s0-9.308,9.308-9.308h74.455s9.308,0,9.308,9.308v46.534s0,9.308-9.308,9.308H681.58s-9.308,0-9.308-9.308Z" transform="translate(-662.963 -96.447)" fill="#bfbfbf"/>
    <circle id="Ellipse_160" data-name="Ellipse 160" cx="11.955" cy="11.955" r="11.955" transform="translate(67.415 69.458)" fill="#67dde0" stroke="#4d5152" stroke-width="4"/>
    <circle id="Ellipse_160-2" data-name="Ellipse 160" cx="11.955" cy="11.955" r="11.955" transform="translate(20.742 69.458)" fill="#67dde0" stroke="#4d5152" stroke-width="4"/>
    <circle id="Ellipse_160-3" data-name="Ellipse 160" cx="7.418" cy="7.418" r="7.418" transform="translate(48.616 33.806)" fill="#d24317" stroke="#4d5152" stroke-width="4"/>
    <path id="Path_3683" data-name="Path 3683" d="M682.976,192.549V178.59a4.566,4.566,0,0,1,4.476-4.654c.059,0,.12,0,.178,0h37.229a4.562,4.562,0,0,1,4.654,4.473c0,.061,0,.12,0,.18v13.959" transform="translate(-650.401 -71.321)" fill="#aaa"/>
    <path id="Path_3684" data-name="Path 3684" d="M677.3,158.95h-4.654a4.565,4.565,0,0,0-4.654,4.473v28.1a4.568,4.568,0,0,0,4.476,4.654H677.3Z" transform="translate(-667.99 -88.91)" fill="#aaa" stroke="#4d5152" stroke-width="4"/>
    <path id="Path_3685" data-name="Path 3685" d="M715.088,158.95h4.654a4.562,4.562,0,0,1,4.654,4.473c0,.061,0,.12,0,.18v27.921a4.565,4.565,0,0,1-4.473,4.654h-4.834Z" transform="translate(-612.711 -88.91)" fill="#aaa" stroke="#4d5152" stroke-width="4"/>
    <rect id="Rectangle_1222" data-name="Rectangle 1222" width="36.953" height="14.529" transform="translate(36.754 121.627)" fill="#bfbfbf" stroke="#4d5152" stroke-width="4"/>
    <path id="Path_3688" data-name="Path 3688" d="M672.272,161.835s0-9.308,9.308-9.308h74.455s9.308,0,9.308,9.308v46.534s0,9.308-9.308,9.308H681.58s-9.308,0-9.308-9.308Z" transform="translate(-662.963 -96.447)" fill="none" stroke="#4d5152" stroke-miterlimit="10" stroke-width="6"/>
    <path id="Path_3689" data-name="Path 3689" d="M682.976,192.549V178.59a4.566,4.566,0,0,1,4.476-4.654c.059,0,.12,0,.178,0h37.229a4.562,4.562,0,0,1,4.654,4.473c0,.061,0,.12,0,.18v13.959" transform="translate(-650.401 -71.321)" fill="none" stroke="#4d5152" stroke-miterlimit="10" stroke-width="1"/>
    <line id="Line_72" data-name="Line 72" y2="9.308" transform="translate(55.844 47.687)" fill="none" stroke="#4d5152" stroke-miterlimit="10" stroke-width="4"/>
  </g>
</svg>
