<svg xmlns="http://www.w3.org/2000/svg" xmlns:xlink="http://www.w3.org/1999/xlink" width="102" height="102" viewBox="0 0 102 102">
  <defs>
    <linearGradient id="linear-gradient" x1="0.251" y1="0.094" x2="0.864" y2="0.774" gradientUnits="objectBoundingBox">
      <stop offset="0" stop-color="#d65db1"/>
      <stop offset="1" stop-color="#ff6f91"/>
    </linearGradient>
  </defs>
  <g id="Group_2917" data-name="Group 2917" transform="translate(-1030 -536)">
    <g id="border" transform="translate(1030 536)" fill="none" stroke="#d65db1" stroke-width="8">
      <rect width="102" height="102" rx="11" stroke="none"/>
      <rect x="4" y="4" width="94" height="94" rx="7" fill="none"/>
    </g>
    <path id="starbig" d="M44.4,11.043l-8.223,6.305,2.958,9.946-8.548-5.883-8.548,5.883L25,17.348l-8.223-6.305,10.368-.293L30.591,1l3.445,9.751,10.368.293" transform="translate(1057.481 547.971)" fill="#d65db1"/>
    <path id="starsmal" d="M47.909,23.815l-5.33,4.063L44.5,34.313l-5.525-3.8-5.525,3.8,1.918-6.435-5.33-4.063,6.7-.163,2.243-6.338,2.243,6.338,6.7.163" transform="translate(1070.133 557.657)" fill="#d65db1"/>
    <path id="moon" d="M57.139,46.333c2.7-.26,5.59,3.575,3.868,6.013a27.8,27.8,0,0,1-3.51,4.128A32.5,32.5,0,0,1,11.539,10.516a32.317,32.317,0,0,1,4.128-3.51c2.438-1.723,6.273,1.17,6.013,3.868a32.557,32.557,0,0,0,35.46,35.46" transform="translate(1047.117 552.822)" fill="url(#linear-gradient)"/>
  </g>
</svg>
