<svg xmlns="http://www.w3.org/2000/svg" width="43.414" height="29.765" viewBox="0 0 43.414 29.765">
  <g id="icon-webspace-planet" transform="translate(0.53 1.023)">
    <path id="Path_3670" data-name="Path 3670" d="M259.123,169.029c-5.155,4.171-8.012,7.925-6.971,9.726,1.61,2.79,11.965-.17,23.129-6.614s18.9-13.934,17.3-16.724c-1.041-1.8-5.724-1.206-11.919,1.178" transform="translate(-250.417 -151.894)" fill="none" stroke="#fff" stroke-miterlimit="10" stroke-width="1"/>
    <path id="Union_2" data-name="Union 2" d="M0,13.384a13.184,13.184,0,0,1,.3-2.815v0a13.387,13.387,0,0,1,26.172,0,13.14,13.14,0,0,1,.3,2.817A13.381,13.381,0,1,1,0,13.384Z" transform="translate(7.992 0.477)" fill="none" stroke="#fff" stroke-miterlimit="10" stroke-width="3"/>
    <g id="Path_5" data-name="Path 5" transform="translate(3.536 3.311)" fill="none">
      <path d="M5.138,0A5.138,5.138,0,1,1,0,5.138,5.138,5.138,0,0,1,5.138,0Z" stroke="none"/>
      <path d="M 5.137511730194092 2.000001907348633 C 3.407481670379639 2.000001907348633 2.000001907348633 3.407481670379639 2.000001907348633 5.137511730194092 C 2.000001907348633 6.867541790008545 3.407481670379639 8.275021553039551 5.137511730194092 8.275021553039551 C 6.867541790008545 8.275021553039551 8.275021553039551 6.867541790008545 8.275021553039551 5.137511730194092 C 8.275021553039551 3.407481670379639 6.867541790008545 2.000001907348633 5.137511730194092 2.000001907348633 M 5.137511730194092 1.9073486328125e-06 C 7.974881649017334 1.9073486328125e-06 10.27502155303955 2.30014181137085 10.27502155303955 5.137511730194092 C 10.27502155303955 7.974881649017334 7.974881649017334 10.27502155303955 5.137511730194092 10.27502155303955 C 2.30014181137085 10.27502155303955 1.9073486328125e-06 7.974881649017334 1.9073486328125e-06 5.137511730194092 C 1.9073486328125e-06 2.30014181137085 2.30014181137085 1.9073486328125e-06 5.137511730194092 1.9073486328125e-06 Z" stroke="none" fill="#f7f7f7"/>
    </g>
    <path id="Path_3670-2" data-name="Path 3670" d="M259.123,169.029c-5.155,4.171-8.012,7.925-6.971,9.726,1.61,2.79,11.965-.17,23.129-6.614s18.9-13.934,17.3-16.724c-1.041-1.8-5.724-1.206-11.919,1.178" transform="translate(-251.94 -154.367)" fill="none" stroke="#fff" stroke-miterlimit="10" stroke-width="1"/>
    <g id="Path_6" data-name="Path 6" transform="translate(3.536 3.311)" fill="none">
      <path d="M5.138,0A5.138,5.138,0,1,1,0,5.138,5.138,5.138,0,0,1,5.138,0Z" stroke="none"/>
      <path d="M 5.137511730194092 2.000001907348633 C 3.407481670379639 2.000001907348633 2.000001907348633 3.407481670379639 2.000001907348633 5.137511730194092 C 2.000001907348633 6.867541790008545 3.407481670379639 8.275021553039551 5.137511730194092 8.275021553039551 C 6.867541790008545 8.275021553039551 8.275021553039551 6.867541790008545 8.275021553039551 5.137511730194092 C 8.275021553039551 3.407481670379639 6.867541790008545 2.000001907348633 5.137511730194092 2.000001907348633 M 5.137511730194092 1.9073486328125e-06 C 7.974881649017334 1.9073486328125e-06 10.27502155303955 2.30014181137085 10.27502155303955 5.137511730194092 C 10.27502155303955 7.974881649017334 7.974881649017334 10.27502155303955 5.137511730194092 10.27502155303955 C 2.30014181137085 10.27502155303955 1.9073486328125e-06 7.974881649017334 1.9073486328125e-06 5.137511730194092 C 1.9073486328125e-06 2.30014181137085 2.30014181137085 1.9073486328125e-06 5.137511730194092 1.9073486328125e-06 Z" stroke="none" fill="#fff"/>
    </g>
  </g>
</svg>
