<svg xmlns="http://www.w3.org/2000/svg" viewBox="0 0 566.93 102.05"><rect width="566.93" height="102.05" fill="#2e3192"/><path d="M58,78.41v-59h9.84v59Zm26.73,0L67.89,45.61,84.7,19.37h11l-18,26.24,18,32.8Z" fill="#fff"/><path d="M121.93,60.37c.33,7.22,3.28,10.66,9,10.66,5.49,0,10.82-1.64,13.94-2.62v8.2A39.29,39.29,0,0,1,131,79.23c-10.5,0-18.86-5-18.86-22.14C112.09,41.51,119.8,35,129.8,35s16.73,7,16.73,22.14v3.28Zm7.87-17.63c-5.41,0-7.13,3.45-7.87,10.83h14.76C136.52,47.09,134.88,42.74,129.8,42.74Z" fill="#fff"/><path d="M192.45,78.41V50.53c0-4.67-.58-7.38-4.43-7.38-5.74,0-8.69,4.76-8.69,10.83V78.41h-9.84V35.77h9l.82,5.17c3.77-4.18,7.54-6,12-6,6.56,0,10.91,4.43,10.91,11V78.41Z" fill="#fff"/><path d="M249.85,78.41V50.53c0-4.67-.58-7.38-4.43-7.38-5.74,0-8.69,4.76-8.69,10.83V78.41h-9.84V35.77h9l.82,5.17c3.77-4.18,7.54-6,12.05-6,6.56,0,10.91,4.43,10.91,11V78.41Z" fill="#fff"/><path d="M282.65,78.41V71h6.56V43.15h-6.56V35.77h16.4V71h6.56v7.38ZM286.75,30V19.37h12.3V30Z" fill="#fff"/><path d="M339.14,79.23a35.43,35.43,0,0,1-13-2.29V68.25C329,69.31,334.55,71,339.31,71c3.77,0,4.84-2.13,4.84-4.92,0-7.29-18-5.16-18-18.2,0-8.37,5.66-13,15.09-13a33.82,33.82,0,0,1,11.16,2.14v8.44a35.45,35.45,0,0,0-11.48-2.38c-3.78,0-4.92,1.89-4.92,4.27,0,6.64,18,4.18,18,18.78C354,74.4,348.16,79.23,339.14,79.23Z" fill="#fff"/><path d="M399.82,78.41V50.53c0-4.67-.57-7.38-4.42-7.38-5.75,0-8.7,4.76-8.7,10.83V78.41h-9.84V35.77h9l.82,5.17c3.78-4.18,7.55-6,12.06-6,6.56,0,10.9,4.43,10.9,11V78.41Z" fill="#fff"/><path d="M442.46,60.37c.33,7.22,3.28,10.66,9,10.66,5.5,0,10.83-1.64,13.94-2.62v8.2a39.24,39.24,0,0,1-13.94,2.62c-10.49,0-18.86-5-18.86-22.14,0-15.58,7.71-22.14,17.71-22.14s16.73,7,16.73,22.14v3.28Zm7.87-17.63c-5.41,0-7.13,3.45-7.87,10.83h14.76C457.06,47.09,455.42,42.74,450.33,42.74Z" fill="#fff"/><path d="M503.55,79.23c-6,0-9.43-3-9.43-9.92V43.15h-6.56V35.77h6.56V25.93L504,23.47v12.3h7.38v7.38H504V67.59c0,2.38.66,3.44,2.87,3.44a23.68,23.68,0,0,0,4.51-.82v8A41.24,41.24,0,0,1,503.55,79.23Z" fill="#fff"/></svg>