<svg xmlns="http://www.w3.org/2000/svg" width="234.861" height="46.004" viewBox="0 0 234.861 46.004">
  <g id="Group_1478" data-name="Group 1478" transform="translate(0.5 0.5)">
    <rect id="Rectangle_1217" data-name="Rectangle 1217" width="233.861" height="45.004" fill="#fff" stroke="#000" stroke-width="1"/>
    <path id="Path_3537" data-name="Path 3537" d="M24.359,25.082c0,3.937-1.628,5.186-4.688,5.186-3.506,0-4.67-1.743-4.67-5.372V15h2.307v9.715c0,1.325-.087,3.818,2.381,3.818,2.037,0,2.4-1.48,2.4-3.716V15h2.268Z"/>
    <path id="Path_3538" data-name="Path 3538" d="M191.57,30,187.057,17.04V30H185.12V15h3.385l4.514,12.961V15H195.1V30Z"/>
    <path id="Path_3539" data-name="Path 3539" d="M33.831,30,29.316,17.04V30H27.38V15h3.385L35.28,27.962V15h2.077V30Z"/>
    <path id="Path_3540" data-name="Path 3540" d="M40.852,30V15h2.327V30Z"/>
    <path id="Path_3541" data-name="Path 3541" d="M90.3,30V15h2.326V30Z"/>
    <path id="Path_3542" data-name="Path 3542" d="M51.584,30H48.85L45.059,15h2.42L50.324,27.88,53.274,15h2.268Z"/>
    <path id="Path_3543" data-name="Path 3543" d="M57.373,30V15H64.8v1.793H59.679v4.574h4.79V23.1h-4.79v5.107h5.266V30Z"/>
    <path id="Path_3544" data-name="Path 3544" d="M174.857,30V15h7.428v1.793h-5.122v4.574h4.79V23.1h-4.79v5.107h5.267V30Z"/>
    <path id="Path_3545" data-name="Path 3545" d="M208.088,30V15h7.428v1.793h-5.122v4.574h4.79V23.1h-4.79v5.107h5.266V30Z"/>
    <path id="Path_3546" data-name="Path 3546" d="M73.845,30a38.252,38.252,0,0,1-.229-3.926,4.6,4.6,0,0,0-.435-2.162q-.414-.6-1.907-.6H69.886V30H67.561V15h4.313c2.481,0,4.292.6,4.292,3.8q0,3.028-2.452,3.631a2.1,2.1,0,0,1,1.741.871,5.02,5.02,0,0,1,.478,2.4,33.661,33.661,0,0,0,.31,4.3ZM73.813,18.98c0-1.738-.919-2.225-2.372-2.225H69.886v4.8H71.1C73.085,21.558,73.813,21.03,73.813,18.98Z"/>
    <path id="Path_3547" data-name="Path 3547" d="M87.453,26.224q0,4.042-4.421,4.044c-3.3,0-4.44-1.325-4.44-4.474V25.63h2.381v.164c0,1.781.456,2.76,2.058,2.76q2.058,0,2.059-2.145A2.607,2.607,0,0,0,83.657,24.1q-.476-.312-1.266-.792c-2.215-1.363-3.59-2.268-3.59-4.7,0-2.482,1.536-3.894,4.394-3.894q4.107,0,4.106,3.746V19H84.975v-.373q0-2.18-1.885-2.178a1.791,1.791,0,0,0-1.927,1.994c0,1.488,1.06,1.974,2.056,2.616.346.22.7.449,1.058.683C86.626,23.243,87.453,23.928,87.453,26.224Z"/>
    <path id="Path_3548" data-name="Path 3548" d="M100.335,16.794V30H98.011V16.794H94.548V15h9.25v1.793Z"/>
    <path id="Path_3549" data-name="Path 3549" d="M151.534,16.794V30H149.21V16.794h-3.463V15H155v1.793Z"/>
    <path id="Path_3550" data-name="Path 3550" d="M202.73,16.794V30h-2.324V16.794h-3.463V15h9.25v1.793Z"/>
    <path id="Path_3551" data-name="Path 3551" d="M169.666,30h-2.714l-2.341-12.586L162.02,30h-2.713l-3.191-15h2.458l2.22,12.545L163.365,15h2.715l2.365,12.545L170.83,15H173Z"/>
    <path id="Path_3552" data-name="Path 3552" d="M220.074,29.112a1.211,1.211,0,1,1-1.213-1.216A1.213,1.213,0,0,1,220.074,29.112Z"/>
    <g id="Group_1477" data-name="Group 1477">
      <path id="Path_3553" data-name="Path 3553" d="M110.519,24.276V30h-2.325V24.276L104.252,15h2.573l2.7,7.159L112.282,15h2.386Z"/>
      <path id="Path_3554" data-name="Path 3554" d="M130.051,22.636q0,4.068-.705,5.5-1.017,2.137-4.171,2.137-3.009,0-4.026-2.054a7.4,7.4,0,0,1-.581-2.262,31.572,31.572,0,0,1-.124-3.3,29.142,29.142,0,0,1,.187-3.942,5.289,5.289,0,0,1,1.058-2.656,4.431,4.431,0,0,1,3.548-1.349,4.593,4.593,0,0,1,3.548,1.225,4.8,4.8,0,0,1,1.079,2.655A30.423,30.423,0,0,1,130.051,22.636Zm-2.407-.27a24.882,24.882,0,0,0-.187-3.756q-.414-2.157-2.22-2.157-1.785,0-2.261,2.282a9.619,9.619,0,0,0-.124,1.329q-.043.912-.042,2.365,0,1.348.031,2.261a11.269,11.269,0,0,0,.114,1.412,3.726,3.726,0,0,0,.664,1.8,1.955,1.955,0,0,0,1.618.644q1.848,0,2.241-2.324a12.344,12.344,0,0,0,.124-1.432Q127.644,23.84,127.644,22.366Z"/>
      <path id="Path_3555" data-name="Path 3555" d="M135.293,16.786v4.607h4.44v1.742h-4.44V30h-2.3V15h6.992v1.785Z"/>
    </g>
  </g>
</svg>
